<?xml version="1.0" encoding="UTF-8"?>
<svg id="Layer_1" data-name="Layer 1" xmlns="http://www.w3.org/2000/svg" xmlns:xlink="http://www.w3.org/1999/xlink" viewBox="0 0 1920 385.35">
  <defs>
    <style>
      .cls-1 {
        fill: none;
      }

      .cls-1, .cls-2, .cls-3, .cls-4 {
        stroke-width: 0px;
      }

      .cls-2 {
        fill: #ff9203;
      }

      .cls-3 {
        fill: #001559;
      }

      .cls-5 {
        clip-path: url(#clippath);
      }

      .cls-4 {
        fill: #0031eb;
      }
    </style>
    <clipPath id="clippath">
      <rect class="cls-1" width="1920" height="385.35"/>
    </clipPath>
  </defs>
  <g class="cls-5">
    <path class="cls-2" d="M553.6,337.75c0,9.57-2.51,16.77-7.54,21.61-5.02,4.84-12.08,7.27-21.15,7.27s-15.95-2.43-20.98-7.27c-5.02-4.84-7.54-12.04-7.54-21.61v-80.44h-20.7v80.08c0,10.29,2.18,19,6.54,26.15,4.36,7.14,10.26,12.47,17.7,15.98,7.44,3.51,15.71,5.27,24.79,5.27s17.37-1.76,24.87-5.27c7.51-3.51,13.5-8.84,17.98-15.98,4.48-7.14,6.72-15.86,6.72-26.15v-80.08h-20.7v80.44Z"/>
    <path class="cls-2" d="M625.32,258.58h-20.88v24.88h-11.81v16.89h11.81v55.38c0,9.81,2.48,16.88,7.44,21.24,4.96,4.36,12.1,6.54,21.43,6.54h16.34v-17.25h-12.71c-4.24,0-7.24-.82-8.99-2.45-1.76-1.63-2.64-4.33-2.64-8.08v-55.38h24.33v-16.89h-24.33v-24.88Z"/>
    <rect class="cls-2" x="668.73" y="283.46" width="20.7" height="100.06"/>
    <path class="cls-2" d="M679.26,243.69c-3.76,0-6.9,1.27-9.45,3.82-2.54,2.54-3.82,5.69-3.82,9.44s1.27,6.9,3.82,9.44c2.54,2.55,5.69,3.81,9.45,3.81s6.72-1.27,9.26-3.81c2.54-2.54,3.82-5.69,3.82-9.44s-1.27-6.9-3.82-9.44c-2.54-2.54-5.63-3.82-9.26-3.82"/>
    <rect class="cls-2" x="716.67" y="249.14" width="20.7" height="134.38"/>
    <rect class="cls-2" x="764.6" y="283.46" width="20.7" height="100.06"/>
    <path class="cls-2" d="M775.14,243.69c-3.76,0-6.9,1.27-9.45,3.82-2.54,2.54-3.82,5.69-3.82,9.44s1.27,6.9,3.82,9.44c2.54,2.55,5.69,3.81,9.45,3.81s6.72-1.27,9.26-3.81c2.54-2.54,3.82-5.69,3.82-9.44s-1.27-6.9-3.82-9.44c-2.54-2.54-5.63-3.82-9.26-3.82"/>
    <path class="cls-2" d="M836.69,258.58h-20.88v24.88h-11.81v16.89h11.81v55.38c0,9.81,2.48,16.88,7.44,21.24,4.96,4.36,12.1,6.54,21.43,6.54h16.34v-17.25h-12.71c-4.24,0-7.24-.82-8.99-2.45-1.76-1.63-2.64-4.33-2.64-8.08v-55.38h24.33v-16.89h-24.33v-24.88Z"/>
    <path class="cls-2" d="M890.63,243.69c-3.76,0-6.9,1.27-9.45,3.82-2.54,2.54-3.82,5.69-3.82,9.44s1.27,6.9,3.82,9.44c2.54,2.55,5.69,3.81,9.45,3.81s6.72-1.27,9.26-3.81c2.54-2.54,3.82-5.69,3.82-9.44s-1.27-6.9-3.82-9.44c-2.54-2.54-5.63-3.82-9.26-3.82"/>
    <rect class="cls-2" x="880.1" y="283.46" width="20.7" height="100.06"/>
    <path class="cls-2" d="M996.31,287.99c-7.39-4.11-15.8-6.17-25.24-6.17s-18.5,2.12-26.06,6.36c-7.57,4.24-13.44,10.26-17.62,18.07-4.18,7.8-6.27,16.86-6.27,27.15s2.15,19.34,6.45,27.15c4.3,7.81,10.23,13.86,17.8,18.16,7.57,4.3,16.13,6.45,25.7,6.45,11.74,0,21.58-2.93,29.51-8.81,7.93-5.87,13.4-13.41,16.43-22.6h-22.33c-4.6,9.33-12.47,13.98-23.61,13.98-7.75,0-14.29-2.42-19.62-7.26-5.32-4.84-8.29-11.26-8.89-19.25h76.44c.49-3.03.73-6.42.73-10.16,0-9.69-2.06-18.25-6.17-25.7-4.12-7.44-9.87-13.22-17.25-17.34M942.74,324.5c.97-7.75,4-13.9,9.08-18.43,5.08-4.54,11.19-6.81,18.34-6.81,7.87,0,14.47,2.3,19.8,6.9,5.32,4.6,8.04,10.71,8.17,18.34h-55.38Z"/>
    <path class="cls-2" d="M1109.44,340.11c-3.39-3.87-7.42-6.81-12.08-8.8-4.66-1.99-10.62-3.97-17.89-5.9-5.45-1.57-9.57-2.87-12.35-3.9-2.79-1.03-5.15-2.45-7.08-4.27-1.94-1.81-2.9-4.05-2.9-6.72,0-3.39,1.45-6.11,4.36-8.17,2.91-2.06,7.08-3.09,12.53-3.09s9.99,1.33,13.26,4c3.27,2.66,5.08,6.24,5.45,10.71h20.7c-.49-9.92-4.21-17.76-11.17-23.51-6.96-5.75-16.13-8.63-27.51-8.63-7.62,0-14.38,1.27-20.25,3.82-5.87,2.54-10.38,6.03-13.53,10.44-3.15,4.42-4.72,9.29-4.72,14.62,0,6.54,1.72,11.81,5.17,15.8,3.45,3.99,7.54,6.96,12.26,8.9,4.72,1.94,10.83,3.94,18.34,5.99,7.75,2.18,13.41,4.18,16.98,5.99,3.57,1.81,5.35,4.6,5.35,8.35,0,3.51-1.6,6.39-4.81,8.62-3.21,2.25-7.71,3.36-13.53,3.36s-10.2-1.42-13.89-4.26c-3.69-2.85-5.72-6.39-6.08-10.63h-21.43c.24,6.06,2.18,11.53,5.81,16.43,3.63,4.9,8.56,8.78,14.8,11.63,6.24,2.84,13.28,4.27,21.16,4.27s14.5-1.27,20.25-3.81c5.75-2.55,10.2-6.05,13.35-10.54,3.14-4.47,4.72-9.56,4.72-15.25-.12-6.42-1.88-11.56-5.26-15.44"/>
    <path class="cls-4" d="M1,72.51v48.86c44.47,0,80.65,36.16,80.65,80.63h48.86c0-71.41-58.1-129.49-129.51-129.49"/>
    <path class="cls-4" d="M1.01,143.62v58.38h58.38c0-32.19-26.19-58.38-58.38-58.38"/>
    <path class="cls-4" d="M191.09,134.23C163.19,56.19,88.5.2,1.01.2v47.81c84.92,0,153.98,69.08,153.98,153.98h226.18V.2c-87.51,0-162.18,55.99-190.08,134.03"/>
    <polygon class="cls-3" points="589.52 131.96 540.78 5.83 475.49 5.83 475.49 200.05 529.49 200.05 529.49 91.97 566.4 200.05 611.58 200.05 648.22 92.77 648.22 200.05 702.21 200.05 702.21 5.83 637.2 5.83 589.52 131.96"/>
    <path class="cls-3" d="M790.64,5.83l-70.8,194.21h56.75l10.51-31.68h68.84l10.46,31.68h57.02L852.9,5.83h-62.26ZM800.8,127.04l20.8-62.72,20.7,62.72h-41.5Z"/>
    <path class="cls-3" d="M1071.77,18.23c-15.15-8.26-33.11-12.4-53.86-12.4h-76.86v194.21h76.86c20.75,0,38.71-4.22,53.86-12.67,15.15-8.44,26.86-19.97,35.12-34.57,8.26-14.6,12.4-31.27,12.4-50s-4.13-35.9-12.4-50.41c-8.26-14.51-19.97-25.9-35.12-34.16M1050.83,139.58c-9.09,8.54-21.44,12.81-37.05,12.81h-18.73V52.67h18.73c15.61,0,27.96,4.32,37.05,12.95,9.09,8.63,13.63,21.03,13.63,37.19s-4.54,28.24-13.63,36.78"/>
    <path class="cls-3" d="M1284.44,119.33c-10.19-8.82-21.81-14.6-34.85-17.36,9.55-3.31,18.27-7.94,26.17-13.91,7.9-5.96,14.74-13.08,20.52-21.35,5.79-8.27,10.47-17.54,14.05-27.82,3.58-10.28,5.92-21.3,7.03-33.06h-58.4c-.73,15.25-3.72,28.37-8.95,39.39-5.23,11.02-12.26,19.52-21.07,25.48-8.82,5.97-19.29,8.95-31.41,8.95V5.83h-53.99v194.21h53.99v-76.31c13.22,0,24.7,3.03,34.43,9.09,9.73,6.06,17.49,14.74,23.28,26.03,5.79,11.3,9.13,25.03,10.06,41.18h58.4c-2.57-17.81-7.21-33.51-13.91-47.11-6.71-13.59-15.15-24.79-25.34-33.61"/>
    <path class="cls-3" d="M1500.41,31.73c-9.09-8.82-19.65-15.65-31.68-20.52-12.03-4.86-24.93-7.3-38.71-7.3s-26.68,2.43-38.7,7.3c-12.03,4.87-22.64,11.71-31.82,20.52-9.18,8.82-16.34,19.24-21.49,31.27-5.14,12.03-7.71,25.3-7.71,39.8s2.57,27.78,7.71,39.81c5.14,12.03,12.3,22.5,21.49,31.4,9.18,8.91,19.79,15.8,31.82,20.66,12.02,4.87,24.93,7.3,38.7,7.3s26.68-2.43,38.71-7.3c12.03-4.86,22.59-11.75,31.68-20.66,9.09-8.91,16.21-19.38,21.35-31.4,5.14-12.03,7.72-25.3,7.72-39.81s-2.57-27.77-7.72-39.8c-5.14-12.03-12.26-22.45-21.35-31.27M1469.28,128.56c-3.58,7.44-8.68,13.18-15.29,17.22-6.61,4.04-14.6,6.06-23.97,6.06s-17.35-2.02-23.96-6.06c-6.61-4.04-11.71-9.78-15.29-17.22-3.58-7.44-5.37-16.02-5.37-25.76s1.79-18.82,5.37-26.17c3.58-7.34,8.68-13.04,15.29-17.08,6.61-4.04,14.6-6.06,23.96-6.06s17.35,2.02,23.97,6.06c6.61,4.04,11.71,9.74,15.29,17.08,3.58,7.35,5.37,16.07,5.37,26.17s-1.79,18.32-5.37,25.76"/>
    <path class="cls-3" d="M1666.11,118.5c0,10.1-2.44,18.09-7.3,23.97-4.87,5.88-12.44,8.82-22.73,8.82s-17.54-2.94-22.31-8.82c-4.78-5.88-7.16-13.86-7.16-23.97V5.83h-53.72v112.67c0,18.37,3.58,33.75,10.74,46.14,7.16,12.4,16.94,21.72,29.34,27.96,12.4,6.24,26.4,9.36,42.01,9.36s29.84-3.12,42.7-9.36c12.85-6.24,23.14-15.57,30.85-27.96,7.71-12.4,11.57-27.78,11.57-46.14V5.83h-53.99v112.67Z"/>
    <path class="cls-3" d="M1908.95,160.79c-4.87-11.29-10.88-20.66-18.05-28.1-7.16-7.44-15.33-12.71-24.52-15.84,13.4-3.12,23.6-9.46,30.58-19.01,6.98-9.55,10.47-20.02,10.47-31.4,0-12.67-2.89-23.55-8.68-32.64s-14.05-16.02-24.79-20.8c-10.74-4.77-23.74-7.16-38.98-7.16h-85.12v194.21h53.99v-67.22c7.71.18,14.51,1.33,20.39,3.44,5.87,2.11,10.92,5,15.15,8.68,6.98,5.7,12.07,13.27,15.29,22.73,3.21,9.46,5.19,20.25,5.92,32.37h58.4c-1.84-14.87-5.19-27.96-10.05-39.25M1847.1,84.07c-3.67,3.86-9.18,5.78-16.53,5.78h-26.72v-40.49h26.72c6.98,0,12.4,1.79,16.25,5.37,3.86,3.58,5.79,8.31,5.79,14.19,0,6.25-1.84,11.29-5.51,15.15"/>
  </g>
</svg>